<svg width="24" height="24" viewBox="0 0 24 24" fill="#666666" xmlns="http://www.w3.org/2000/svg">
  <path fill-rule="evenodd" clip-rule="evenodd"
    d="M11.8665 5.02002C16.2265 5.02002 20.1665 7.53335 22.4132 11.6867L22.5865 12L22.4132 12.32C20.1732 16.5067 16.2265 18.9867 11.8665 18.9867C7.50648 18.9867 3.56648 16.4734 1.31982 12.32L1.14648 12L1.33315 11.6867C3.55982 7.53335 7.50648 5.02002 11.8665 5.02002ZM2.66648 12C4.66648 15.5267 8.11315 17.62 11.8665 17.62C15.6132 17.62 19.0265 15.5267 21.0598 12C19.0265 8.48002 15.6198 6.38002 11.8665 6.38002C8.11315 6.38002 4.66648 8.47335 2.66648 12ZM9.52577 8.23498C10.2739 7.72757 11.1556 7.45325 12.0595 7.44666C12.6612 7.44226 13.2578 7.55665 13.8152 7.78327C14.3727 8.00988 14.8799 8.34427 15.3078 8.76726C15.7358 9.19025 16.076 9.69353 16.3091 10.2483C16.5422 10.803 16.6635 11.3983 16.6662 12C16.6701 12.9039 16.406 13.7888 15.9074 14.5427C15.4087 15.2967 14.6978 15.886 13.8645 16.2361C13.0311 16.5863 12.1127 16.6816 11.2251 16.5101C10.3376 16.3386 9.52081 15.9079 8.87791 15.2725C8.23502 14.637 7.79486 13.8253 7.61302 12.9398C7.43118 12.0544 7.51583 11.1349 7.85627 10.2975C8.19671 9.4601 8.77767 8.74238 9.52577 8.23498ZM10.2707 14.6992C10.7987 15.0583 11.421 15.2534 12.0595 15.26C12.4892 15.2635 12.9154 15.1817 13.3132 15.0193C13.7111 14.8569 14.0727 14.6171 14.3772 14.3139C14.6817 14.0106 14.923 13.6499 15.087 13.2527C15.2511 12.8555 15.3346 12.4297 15.3328 12C15.3288 11.3615 15.1363 10.7384 14.7793 10.2089C14.4224 9.67949 13.9169 9.26732 13.3265 9.0242C12.7361 8.78108 12.087 8.71784 11.4607 8.84243C10.8345 8.96702 10.259 9.27388 9.80654 9.72446C9.35411 10.1751 9.04491 10.7493 8.91777 11.375C8.79062 12.0008 8.85121 12.6501 9.09192 13.2415C9.33263 13.833 9.74272 14.3401 10.2707 14.6992Z" />
</svg>
