<svg width="24" height="24" viewBox="0 0 24 24" fill="#666666" xmlns="http://www.w3.org/2000/svg">
  <path fill-rule="evenodd" clip-rule="evenodd" d="M6.22025 6.82653L3.24691 3.8532L4.38691 2.85986L21.7202 20.1932L20.5536 21.1932L17.2202 17.8599C15.6884 18.601 14.0087 18.9862 12.3069 18.9865C7.94691 18.9865 4.00691 16.4732 1.76025 12.3199L1.58691 11.9999L1.76025 11.6865C2.80485 9.71038 4.34086 8.0366 6.22025 6.82653ZM14.1802 14.7865L9.74691 10.3532C9.44036 10.8483 9.27443 11.4176 9.26691 11.9999C9.26428 12.4279 9.34631 12.8522 9.50829 13.2485C9.67027 13.6447 9.909 14.0049 10.2107 14.3085C10.5125 14.6121 10.8713 14.8531 11.2665 15.0175C11.6617 15.1819 12.0855 15.2665 12.5136 15.2665C13.1027 15.2627 13.6793 15.0966 14.1802 14.7865ZM7.95499 12.4125C7.8642 11.3381 8.15654 10.2661 8.78025 9.38653L7.18691 7.79986C5.48806 8.82533 4.08272 10.272 3.10691 11.9999C5.14025 15.5265 8.55358 17.6199 12.3069 17.6199C13.6498 17.6198 14.9788 17.3477 16.2136 16.8199L15.1469 15.7532C14.2673 16.3769 13.1954 16.6692 12.1209 16.5785C11.0465 16.4877 10.0388 16.0196 9.27632 15.2571C8.51385 14.4947 8.04578 13.487 7.95499 12.4125ZM22.8603 11.6865C20.6136 7.5332 16.6736 5.01987 12.3136 5.01987C11.1265 5.02265 9.94742 5.21392 8.82031 5.58653L9.89365 6.66653C10.6842 6.46222 11.4971 6.35697 12.3136 6.3532C16.067 6.3532 19.4803 8.44653 21.5136 11.9732C20.7677 13.2816 19.7789 14.4356 18.6003 15.3732L19.547 16.3199C20.911 15.2194 22.0439 13.86 22.8803 12.3199L23.0536 11.9999L22.8603 11.6865ZM16.7934 13.5998C16.9849 13.0882 17.082 12.5461 17.0801 11.9998C17.0801 10.7869 16.5983 9.62368 15.7406 8.76601C14.8829 7.90835 13.7197 7.42651 12.5068 7.42651C11.9672 7.42714 11.4321 7.52423 10.9268 7.71318L12.0001 8.81985C12.1632 8.79374 12.3282 8.78037 12.4934 8.77985C13.351 8.77806 14.1745 9.11567 14.7841 9.71898C15.3936 10.3223 15.7397 11.1423 15.7468 11.9998C15.7462 12.1651 15.7328 12.33 15.7068 12.4932L16.7934 13.5998Z"/>
</svg>
